<svg xmlns="http://www.w3.org/2000/svg" viewBox="0 0 100 100">
  <defs>
    <linearGradient id="sky" x1="0%" y1="0%" x2="0%" y2="100%">
      <stop offset="0%" stop-color="#87CEEB"/>
      <stop offset="100%" stop-color="#E0F6FF"/>
    </linearGradient>
    <linearGradient id="bike" x1="0%" y1="0%" x2="100%" y2="0%">
      <stop offset="0%" stop-color="#2563eb"/>
      <stop offset="100%" stop-color="#1d4ed8"/>
    </linearGradient>
  </defs>
  <rect width="100" height="100" fill="url(#sky)" rx="20"/>
  <circle cx="25" cy="70" r="12" fill="#374151" stroke="#111827" stroke-width="2"/>
  <circle cx="75" cy="70" r="12" fill="#374151" stroke="#111827" stroke-width="2"/>
  <path d="M25 70 L40 50 L60 50 L75 70" fill="none" stroke="url(#bike)" stroke-width="3" stroke-linecap="round" stroke-linejoin="round"/>
  <path d="M40 50 L45 35 L55 35" fill="none" stroke="url(#bike)" stroke-width="3" stroke-linecap="round"/>
  <path d="M50 35 L50 45" fill="none" stroke="url(#bike)" stroke-width="2" stroke-linecap="round"/>
  <circle cx="30" cy="25" r="8" fill="#FCD34D" stroke="#F59E0B" stroke-width="1.5"/>
  <path d="M22 25 L30 25 L38 25 M30 17 L30 25 L30 33" stroke="#F59E0B" stroke-width="1.5" stroke-linecap="round"/>
  <path d="M65 30 C68 30 70 32 70 35 C70 38 68 40 65 40 C62 40 60 38 60 35 C60 32 62 30 65 30" fill="#E5E7EB" stroke="#D1D5DB" stroke-width="1"/>
  <path d="M80 20 C83 20 85 22 85 25 C85 28 83 30 80 30 C77 30 75 28 75 25 C75 22 77 20 80 20" fill="#F3F4F6" stroke="#D1D5DB" stroke-width="1"/>
</svg>