<svg xmlns="http://www.w3.org/2000/svg" viewBox="0 0 100 100">
  <defs>
    <linearGradient id="g-sky" x1="0" y1="0" x2="0" y2="1">
      <stop offset="0%" stop-color="#8ec5ff" />
      <stop offset="100%" stop-color="#e9f8ff" />
    </linearGradient>
    <linearGradient id="g-route" x1="0" y1="0" x2="1" y2="0">
      <stop offset="0%" stop-color="#1d4ed8" />
      <stop offset="100%" stop-color="#2563eb" />
    </linearGradient>
  </defs>
  <!-- Rounded background -->
  <rect width="100" height="100" rx="18" fill="url(#g-sky)" />

  <!-- Sun -->
  <g transform="translate(72,20)">
    <circle r="12" fill="#FFD54A" />
    <g stroke="#FFB300" stroke-width="1">
      <line x1="0" y1="-18" x2="0" y2="-12" />
      <line x1="12" y1="0" x2="18" y2="0" />
    </g>
  </g>

  <!-- Soft cloud -->
  <g transform="translate(58,26)" fill="#ffffff" opacity="0.9">
    <ellipse cx="0" cy="0" rx="8" ry="5" />
    <ellipse cx="6" cy="2" rx="6" ry="4" />
    <rect x="-10" y="2" width="20" height="6" rx="3" />
  </g>

  <!-- Stylized route line -->
  <path d="M10 68 C 28 52, 40 44, 55 52 C 70 60, 82 48, 90 40" fill="none" stroke="url(#g-route)" stroke-width="4" stroke-linecap="round" stroke-linejoin="round" />

  <!-- Route marker -->
  <g transform="translate(55,50)">
    <path d="M0 -10 C4 -10, 8 -6, 8 0 C8 6, 0 12, 0 12 C0 12, -8 6, -8 0 C-8 -6, -4 -10, 0 -10 Z" fill="#ef4444" />
    <circle r="3" fill="#ffffff" cx="0" cy="-2" />
  </g>

  <!-- Small wheel to hint bike/hike (neutral) -->
  <g transform="translate(26,70)">
    <circle r="8" fill="#2d3748" />
    <circle r="5" fill="#111827" />
  </g>

</svg>